<mxfile host="Electron" agent="Mozilla/5.0 (Windows NT 10.0; Win64; x64) AppleWebKit/537.36 (KHTML, like Gecko) draw.io/26.0.16 Chrome/132.0.6834.196 Electron/34.2.0 Safari/537.36" version="26.0.16" pages="3">
  <diagram id="YPh31ehcY4Abyanw8YgB" name="数据库整体流程">
    <mxGraphModel dx="1434" dy="844" grid="1" gridSize="10" guides="1" tooltips="1" connect="1" arrows="1" fold="1" page="1" pageScale="1" pageWidth="827" pageHeight="1169" math="0" shadow="0">
      <root>
        <mxCell id="0" />
        <mxCell id="1" parent="0" />
        <mxCell id="zvrY872OcBn3nzNAVZd4-1" style="edgeStyle=orthogonalEdgeStyle;rounded=0;orthogonalLoop=1;jettySize=auto;html=1;exitX=0.5;exitY=1;exitDx=0;exitDy=0;entryX=0.5;entryY=0;entryDx=0;entryDy=0;" edge="1" parent="1" source="zvrY872OcBn3nzNAVZd4-2" target="zvrY872OcBn3nzNAVZd4-5">
          <mxGeometry relative="1" as="geometry" />
        </mxCell>
        <mxCell id="zvrY872OcBn3nzNAVZd4-2" value="开始" style="ellipse;whiteSpace=wrap;html=1;aspect=fixed;" vertex="1" parent="1">
          <mxGeometry x="374" y="97" width="80" height="80" as="geometry" />
        </mxCell>
        <mxCell id="zvrY872OcBn3nzNAVZd4-3" value="结束" style="ellipse;whiteSpace=wrap;html=1;aspect=fixed;" vertex="1" parent="1">
          <mxGeometry x="374" y="785" width="80" height="80" as="geometry" />
        </mxCell>
        <mxCell id="zvrY872OcBn3nzNAVZd4-4" style="edgeStyle=orthogonalEdgeStyle;rounded=0;orthogonalLoop=1;jettySize=auto;html=1;exitX=0.5;exitY=1;exitDx=0;exitDy=0;entryX=0.5;entryY=0;entryDx=0;entryDy=0;" edge="1" parent="1" source="zvrY872OcBn3nzNAVZd4-5" target="zvrY872OcBn3nzNAVZd4-7">
          <mxGeometry relative="1" as="geometry" />
        </mxCell>
        <mxCell id="zvrY872OcBn3nzNAVZd4-5" value="租户" style="rounded=1;whiteSpace=wrap;html=1;" vertex="1" parent="1">
          <mxGeometry x="354" y="226" width="120" height="60" as="geometry" />
        </mxCell>
        <mxCell id="zvrY872OcBn3nzNAVZd4-6" style="edgeStyle=orthogonalEdgeStyle;rounded=0;orthogonalLoop=1;jettySize=auto;html=1;exitX=0.5;exitY=1;exitDx=0;exitDy=0;entryX=0.5;entryY=0;entryDx=0;entryDy=0;" edge="1" parent="1" source="zvrY872OcBn3nzNAVZd4-7" target="zvrY872OcBn3nzNAVZd4-9">
          <mxGeometry relative="1" as="geometry" />
        </mxCell>
        <mxCell id="zvrY872OcBn3nzNAVZd4-7" value="Schema/Database" style="rounded=1;whiteSpace=wrap;html=1;" vertex="1" parent="1">
          <mxGeometry x="354" y="349" width="120" height="60" as="geometry" />
        </mxCell>
        <mxCell id="zvrY872OcBn3nzNAVZd4-8" style="edgeStyle=orthogonalEdgeStyle;rounded=0;orthogonalLoop=1;jettySize=auto;html=1;exitX=0.5;exitY=1;exitDx=0;exitDy=0;entryX=0.5;entryY=0;entryDx=0;entryDy=0;" edge="1" parent="1" source="zvrY872OcBn3nzNAVZd4-9" target="zvrY872OcBn3nzNAVZd4-11">
          <mxGeometry relative="1" as="geometry" />
        </mxCell>
        <mxCell id="zvrY872OcBn3nzNAVZd4-9" value="Table" style="rounded=1;whiteSpace=wrap;html=1;" vertex="1" parent="1">
          <mxGeometry x="354" y="461" width="120" height="60" as="geometry" />
        </mxCell>
        <mxCell id="zvrY872OcBn3nzNAVZd4-10" style="edgeStyle=orthogonalEdgeStyle;rounded=0;orthogonalLoop=1;jettySize=auto;html=1;exitX=0.5;exitY=1;exitDx=0;exitDy=0;entryX=0.5;entryY=0;entryDx=0;entryDy=0;" edge="1" parent="1" source="zvrY872OcBn3nzNAVZd4-11" target="zvrY872OcBn3nzNAVZd4-13">
          <mxGeometry relative="1" as="geometry" />
        </mxCell>
        <mxCell id="zvrY872OcBn3nzNAVZd4-11" value="Region" style="rounded=1;whiteSpace=wrap;html=1;" vertex="1" parent="1">
          <mxGeometry x="354" y="574" width="120" height="60" as="geometry" />
        </mxCell>
        <mxCell id="zvrY872OcBn3nzNAVZd4-12" style="edgeStyle=orthogonalEdgeStyle;rounded=0;orthogonalLoop=1;jettySize=auto;html=1;exitX=0.5;exitY=1;exitDx=0;exitDy=0;entryX=0.5;entryY=0;entryDx=0;entryDy=0;" edge="1" parent="1" source="zvrY872OcBn3nzNAVZd4-13" target="zvrY872OcBn3nzNAVZd4-3">
          <mxGeometry relative="1" as="geometry" />
        </mxCell>
        <mxCell id="zvrY872OcBn3nzNAVZd4-13" value="RegionData" style="rounded=1;whiteSpace=wrap;html=1;" vertex="1" parent="1">
          <mxGeometry x="354" y="680" width="120" height="60" as="geometry" />
        </mxCell>
      </root>
    </mxGraphModel>
  </diagram>
  <diagram name="meta_export" id="_d1cPcAzwJBIYFqM5xj1">
    <mxGraphModel dx="1434" dy="844" grid="1" gridSize="10" guides="1" tooltips="1" connect="1" arrows="1" fold="1" page="1" pageScale="1" pageWidth="827" pageHeight="1169" math="0" shadow="0">
      <root>
        <mxCell id="0" />
        <mxCell id="1" parent="0" />
        <mxCell id="6Qjy8TFS_VatP4liiEhb-2" style="edgeStyle=orthogonalEdgeStyle;rounded=0;orthogonalLoop=1;jettySize=auto;html=1;" parent="1" source="6Qjy8TFS_VatP4liiEhb-1" edge="1">
          <mxGeometry relative="1" as="geometry">
            <mxPoint x="77" y="680" as="targetPoint" />
          </mxGeometry>
        </mxCell>
        <mxCell id="6Qjy8TFS_VatP4liiEhb-1" value="dingodb_br" style="shape=umlActor;verticalLabelPosition=bottom;verticalAlign=top;html=1;outlineConnect=0;" parent="1" vertex="1">
          <mxGeometry x="62" y="150" width="30" height="60" as="geometry" />
        </mxCell>
        <mxCell id="6Qjy8TFS_VatP4liiEhb-3" style="edgeStyle=orthogonalEdgeStyle;rounded=0;orthogonalLoop=1;jettySize=auto;html=1;" parent="1" source="6Qjy8TFS_VatP4liiEhb-4" edge="1">
          <mxGeometry relative="1" as="geometry">
            <mxPoint x="291" y="680" as="targetPoint" />
          </mxGeometry>
        </mxCell>
        <mxCell id="6Qjy8TFS_VatP4liiEhb-4" value="coordinator" style="shape=umlActor;verticalLabelPosition=bottom;verticalAlign=top;html=1;outlineConnect=0;" parent="1" vertex="1">
          <mxGeometry x="276" y="150" width="30" height="60" as="geometry" />
        </mxCell>
        <mxCell id="6Qjy8TFS_VatP4liiEhb-7" style="edgeStyle=orthogonalEdgeStyle;rounded=0;orthogonalLoop=1;jettySize=auto;html=1;" parent="1" source="6Qjy8TFS_VatP4liiEhb-8" edge="1">
          <mxGeometry relative="1" as="geometry">
            <mxPoint x="434" y="680" as="targetPoint" />
          </mxGeometry>
        </mxCell>
        <mxCell id="6Qjy8TFS_VatP4liiEhb-8" value="store" style="shape=umlActor;verticalLabelPosition=bottom;verticalAlign=top;html=1;outlineConnect=0;" parent="1" vertex="1">
          <mxGeometry x="419" y="150" width="30" height="60" as="geometry" />
        </mxCell>
        <mxCell id="6Qjy8TFS_VatP4liiEhb-9" style="edgeStyle=orthogonalEdgeStyle;rounded=0;orthogonalLoop=1;jettySize=auto;html=1;" parent="1" source="6Qjy8TFS_VatP4liiEhb-10" edge="1">
          <mxGeometry relative="1" as="geometry">
            <mxPoint x="569" y="680" as="targetPoint" />
          </mxGeometry>
        </mxCell>
        <mxCell id="6Qjy8TFS_VatP4liiEhb-10" value="index" style="shape=umlActor;verticalLabelPosition=bottom;verticalAlign=top;html=1;outlineConnect=0;" parent="1" vertex="1">
          <mxGeometry x="554" y="150" width="30" height="60" as="geometry" />
        </mxCell>
        <mxCell id="6Qjy8TFS_VatP4liiEhb-11" style="edgeStyle=orthogonalEdgeStyle;rounded=0;orthogonalLoop=1;jettySize=auto;html=1;" parent="1" source="6Qjy8TFS_VatP4liiEhb-12" edge="1">
          <mxGeometry relative="1" as="geometry">
            <mxPoint x="698" y="679" as="targetPoint" />
          </mxGeometry>
        </mxCell>
        <mxCell id="6Qjy8TFS_VatP4liiEhb-12" value="document" style="shape=umlActor;verticalLabelPosition=bottom;verticalAlign=top;html=1;outlineConnect=0;" parent="1" vertex="1">
          <mxGeometry x="683" y="149" width="30" height="60" as="geometry" />
        </mxCell>
        <mxCell id="6Qjy8TFS_VatP4liiEhb-13" value="" style="endArrow=classic;html=1;rounded=0;" parent="1" edge="1">
          <mxGeometry width="50" height="50" relative="1" as="geometry">
            <mxPoint x="80" y="260" as="sourcePoint" />
            <mxPoint x="570" y="260" as="targetPoint" />
          </mxGeometry>
        </mxCell>
        <mxCell id="5FyrWdBONBWe1a3dCwWa-1" value="RestoreDataRequest" style="text;html=1;align=center;verticalAlign=middle;whiteSpace=wrap;rounded=0;" parent="1" vertex="1">
          <mxGeometry x="150" y="230" width="60" height="30" as="geometry" />
        </mxCell>
        <mxCell id="5FyrWdBONBWe1a3dCwWa-2" value="" style="html=1;points=[[0,0,0,0,5],[0,1,0,0,-5],[1,0,0,0,5],[1,1,0,0,-5]];perimeter=orthogonalPerimeter;outlineConnect=0;targetShapes=umlLifeline;portConstraint=eastwest;newEdgeStyle={&quot;curved&quot;:0,&quot;rounded&quot;:0};" parent="1" vertex="1">
          <mxGeometry x="563" y="310" width="10" height="40" as="geometry" />
        </mxCell>
        <mxCell id="5FyrWdBONBWe1a3dCwWa-3" value="存储硬盘" style="html=1;align=left;spacingLeft=2;endArrow=block;rounded=0;edgeStyle=orthogonalEdgeStyle;curved=0;rounded=0;" parent="1" target="5FyrWdBONBWe1a3dCwWa-2" edge="1">
          <mxGeometry relative="1" as="geometry">
            <mxPoint x="564" y="290" as="sourcePoint" />
            <Array as="points">
              <mxPoint x="594" y="320" />
            </Array>
          </mxGeometry>
        </mxCell>
        <mxCell id="5FyrWdBONBWe1a3dCwWa-6" value="" style="html=1;points=[[0,0,0,0,5],[0,1,0,0,-5],[1,0,0,0,5],[1,1,0,0,-5]];perimeter=orthogonalPerimeter;outlineConnect=0;targetShapes=umlLifeline;portConstraint=eastwest;newEdgeStyle={&quot;curved&quot;:0,&quot;rounded&quot;:0};" parent="1" vertex="1">
          <mxGeometry x="564" y="431" width="10" height="40" as="geometry" />
        </mxCell>
        <mxCell id="5FyrWdBONBWe1a3dCwWa-7" value="存储内存" style="html=1;align=left;spacingLeft=2;endArrow=block;rounded=0;edgeStyle=orthogonalEdgeStyle;curved=0;rounded=0;" parent="1" target="5FyrWdBONBWe1a3dCwWa-6" edge="1">
          <mxGeometry relative="1" as="geometry">
            <mxPoint x="565" y="411" as="sourcePoint" />
            <Array as="points">
              <mxPoint x="595" y="441" />
            </Array>
          </mxGeometry>
        </mxCell>
        <mxCell id="5FyrWdBONBWe1a3dCwWa-13" value="" style="endArrow=classic;html=1;rounded=0;" parent="1" edge="1">
          <mxGeometry width="50" height="50" relative="1" as="geometry">
            <mxPoint x="570" y="550" as="sourcePoint" />
            <mxPoint x="80" y="550" as="targetPoint" />
          </mxGeometry>
        </mxCell>
        <mxCell id="5FyrWdBONBWe1a3dCwWa-14" value="RestoreDataResponse" style="text;html=1;align=center;verticalAlign=middle;whiteSpace=wrap;rounded=0;" parent="1" vertex="1">
          <mxGeometry x="145" y="519" width="60" height="30" as="geometry" />
        </mxCell>
      </root>
    </mxGraphModel>
  </diagram>
  <diagram name="meta_import_detail" id="KbBfQqtdc0ZScYw1yTTn">
    <mxGraphModel dx="1195" dy="703" grid="1" gridSize="10" guides="1" tooltips="1" connect="1" arrows="1" fold="1" page="1" pageScale="1" pageWidth="827" pageHeight="1169" math="0" shadow="0">
      <root>
        <mxCell id="UIwRd84gNWmW_0OMLGNi-0" />
        <mxCell id="UIwRd84gNWmW_0OMLGNi-1" parent="UIwRd84gNWmW_0OMLGNi-0" />
        <mxCell id="XGxHegszBBcfnuOJ5-zS-0" style="edgeStyle=orthogonalEdgeStyle;rounded=0;orthogonalLoop=1;jettySize=auto;html=1;exitX=0.5;exitY=1;exitDx=0;exitDy=0;entryX=0.5;entryY=0;entryDx=0;entryDy=0;" edge="1" parent="UIwRd84gNWmW_0OMLGNi-1" source="XGxHegszBBcfnuOJ5-zS-1" target="XGxHegszBBcfnuOJ5-zS-4">
          <mxGeometry relative="1" as="geometry" />
        </mxCell>
        <mxCell id="XGxHegszBBcfnuOJ5-zS-1" value="开始" style="ellipse;whiteSpace=wrap;html=1;aspect=fixed;" vertex="1" parent="UIwRd84gNWmW_0OMLGNi-1">
          <mxGeometry x="384" y="52" width="80" height="80" as="geometry" />
        </mxCell>
        <mxCell id="XGxHegszBBcfnuOJ5-zS-2" value="结束" style="ellipse;whiteSpace=wrap;html=1;aspect=fixed;" vertex="1" parent="UIwRd84gNWmW_0OMLGNi-1">
          <mxGeometry x="384" y="795" width="80" height="80" as="geometry" />
        </mxCell>
        <mxCell id="XGxHegszBBcfnuOJ5-zS-3" style="edgeStyle=orthogonalEdgeStyle;rounded=0;orthogonalLoop=1;jettySize=auto;html=1;exitX=0.5;exitY=1;exitDx=0;exitDy=0;entryX=0.5;entryY=0;entryDx=0;entryDy=0;" edge="1" parent="UIwRd84gNWmW_0OMLGNi-1" source="XGxHegszBBcfnuOJ5-zS-4">
          <mxGeometry relative="1" as="geometry">
            <mxPoint x="424" y="359" as="targetPoint" />
          </mxGeometry>
        </mxCell>
        <mxCell id="XGxHegszBBcfnuOJ5-zS-4" value="RestoreDataRequest" style="rounded=1;whiteSpace=wrap;html=1;" vertex="1" parent="UIwRd84gNWmW_0OMLGNi-1">
          <mxGeometry x="364" y="181" width="120" height="60" as="geometry" />
        </mxCell>
        <mxCell id="XGxHegszBBcfnuOJ5-zS-5" style="edgeStyle=orthogonalEdgeStyle;rounded=0;orthogonalLoop=1;jettySize=auto;html=1;exitX=0.5;exitY=1;exitDx=0;exitDy=0;entryX=0.5;entryY=0;entryDx=0;entryDy=0;" edge="1" parent="UIwRd84gNWmW_0OMLGNi-1" source="GBspKe_aiCodWPDCbUkk-0" target="XGxHegszBBcfnuOJ5-zS-8">
          <mxGeometry relative="1" as="geometry">
            <mxPoint x="425" y="389" as="sourcePoint" />
          </mxGeometry>
        </mxCell>
        <mxCell id="XGxHegszBBcfnuOJ5-zS-7" style="edgeStyle=orthogonalEdgeStyle;rounded=0;orthogonalLoop=1;jettySize=auto;html=1;exitX=0.5;exitY=1;exitDx=0;exitDy=0;entryX=0.5;entryY=0;entryDx=0;entryDy=0;" edge="1" parent="UIwRd84gNWmW_0OMLGNi-1" source="XGxHegszBBcfnuOJ5-zS-8" target="XGxHegszBBcfnuOJ5-zS-10">
          <mxGeometry relative="1" as="geometry" />
        </mxCell>
        <mxCell id="XGxHegszBBcfnuOJ5-zS-8" value="将数据存放到硬盘" style="rounded=1;whiteSpace=wrap;html=1;" vertex="1" parent="UIwRd84gNWmW_0OMLGNi-1">
          <mxGeometry x="364" y="420" width="120" height="60" as="geometry" />
        </mxCell>
        <mxCell id="XGxHegszBBcfnuOJ5-zS-9" style="edgeStyle=orthogonalEdgeStyle;rounded=0;orthogonalLoop=1;jettySize=auto;html=1;exitX=0.5;exitY=1;exitDx=0;exitDy=0;entryX=0.5;entryY=0;entryDx=0;entryDy=0;" edge="1" parent="UIwRd84gNWmW_0OMLGNi-1" source="XGxHegszBBcfnuOJ5-zS-10" target="XGxHegszBBcfnuOJ5-zS-12">
          <mxGeometry relative="1" as="geometry" />
        </mxCell>
        <mxCell id="XGxHegszBBcfnuOJ5-zS-10" value="将数据存放到内存" style="rounded=1;whiteSpace=wrap;html=1;" vertex="1" parent="UIwRd84gNWmW_0OMLGNi-1">
          <mxGeometry x="364" y="533" width="120" height="60" as="geometry" />
        </mxCell>
        <mxCell id="XGxHegszBBcfnuOJ5-zS-11" style="edgeStyle=orthogonalEdgeStyle;rounded=0;orthogonalLoop=1;jettySize=auto;html=1;exitX=0.5;exitY=1;exitDx=0;exitDy=0;entryX=0.5;entryY=0;entryDx=0;entryDy=0;" edge="1" parent="UIwRd84gNWmW_0OMLGNi-1" source="XGxHegszBBcfnuOJ5-zS-12" target="XGxHegszBBcfnuOJ5-zS-2">
          <mxGeometry relative="1" as="geometry" />
        </mxCell>
        <mxCell id="XGxHegszBBcfnuOJ5-zS-12" value="RestoreDataResponse" style="rounded=1;whiteSpace=wrap;html=1;" vertex="1" parent="UIwRd84gNWmW_0OMLGNi-1">
          <mxGeometry x="364" y="639" width="120" height="60" as="geometry" />
        </mxCell>
        <mxCell id="WqhKVQpl3S0TwwXB4B7o-0" style="edgeStyle=orthogonalEdgeStyle;rounded=0;orthogonalLoop=1;jettySize=auto;html=1;exitX=0;exitY=0.5;exitDx=0;exitDy=0;entryX=0;entryY=0.5;entryDx=0;entryDy=0;" edge="1" parent="UIwRd84gNWmW_0OMLGNi-1" source="GBspKe_aiCodWPDCbUkk-0" target="XGxHegszBBcfnuOJ5-zS-12">
          <mxGeometry relative="1" as="geometry">
            <Array as="points">
              <mxPoint x="250" y="322" />
              <mxPoint x="250" y="670" />
              <mxPoint x="364" y="670" />
            </Array>
          </mxGeometry>
        </mxCell>
        <mxCell id="GBspKe_aiCodWPDCbUkk-0" value="数据是否处理完?" style="rhombus;whiteSpace=wrap;html=1;" vertex="1" parent="UIwRd84gNWmW_0OMLGNi-1">
          <mxGeometry x="309" y="282" width="230" height="80" as="geometry" />
        </mxCell>
        <mxCell id="WqhKVQpl3S0TwwXB4B7o-1" value="是" style="text;html=1;align=center;verticalAlign=middle;whiteSpace=wrap;rounded=0;" vertex="1" parent="UIwRd84gNWmW_0OMLGNi-1">
          <mxGeometry x="250" y="292" width="60" height="30" as="geometry" />
        </mxCell>
        <mxCell id="WqhKVQpl3S0TwwXB4B7o-2" value="否" style="text;html=1;align=center;verticalAlign=middle;whiteSpace=wrap;rounded=0;" vertex="1" parent="UIwRd84gNWmW_0OMLGNi-1">
          <mxGeometry x="404" y="390" width="60" height="30" as="geometry" />
        </mxCell>
      </root>
    </mxGraphModel>
  </diagram>
</mxfile>
